<svg xmlns="http://www.w3.org/2000/svg" width="24" height="24" viewBox="0 0 24 24" fill="none" stroke="currentColor" stroke-width="2" stroke-linecap="round" stroke-linejoin="round" class="feather feather-github">
    <path d="M12 2C6.48 2 2 6.48 2 12c0 4.41 2.87 8.15 6.84 9.48.5.09.68-.22.68-.5 0-.25-.01-.92-.01-1.8-2.78.6-3.37-1.34-3.37-1.34-.45-1.15-1.1-1.46-1.1-1.46-.9-.62.07-.61.07-.61 1 .07 1.53 1.02 1.53 1.02.9 1.53 2.36 1.09 2.94.83.09-.65.35-1.09.64-1.34-2.22-.25-4.56-1.11-4.56-4.94 0-1.09.39-1.98 1.02-2.68-.1-.26-.45-1.3.1-2.71 0 0 .84-.27 2.75 1.02A9.57 9.57 0 0112 6.8c.85.004 1.71.11 2.51.32 1.9-1.3 2.74-1.02 2.74-1.02.56 1.41.21 2.45.1 2.71.63.7 1.02 1.59 1.02 2.68 0 3.83-2.34 4.69-4.57 4.93.36.31.68.92.68 1.85 0 1.34-.01 2.42-.01 2.75 0 .27.18.59.69.49A10.002 10.002 0 0022 12c0-5.52-4.48-10-10-10z"></path>
</svg>